<svg width="39" height="45" viewBox="0 0 39 45" fill="none" xmlns="http://www.w3.org/2000/svg">
<path d="M17.0625 45C12.1469 44.3902 8.07463 42.2463 4.84575 38.5683C1.61687 34.8902 0.001625 30.5707 0 25.6098C0 22.9268 0.528125 20.3561 1.58438 17.8976C2.64063 15.439 4.14375 13.2943 6.09375 11.4634L9.56719 14.939C8.02344 16.3211 6.85588 17.9268 6.0645 19.7561C5.27312 21.5854 4.87663 23.5366 4.875 25.6098C4.875 29.187 6.0125 32.348 8.2875 35.0927C10.5625 37.8374 13.4875 39.5138 17.0625 40.1219V45ZM21.9375 45V40.1219C25.4719 39.4715 28.3871 37.7845 30.6832 35.061C32.9794 32.3374 34.1266 29.187 34.125 25.6098C34.125 21.5447 32.7031 18.0894 29.8594 15.2439C27.0156 12.3984 23.5625 10.9756 19.5 10.9756H19.3172L21.9984 13.6585L18.5859 17.0732L10.0547 8.53658L18.5859 0L21.9984 3.41463L19.3172 6.09756H19.5C24.9438 6.09756 29.5547 7.9878 33.3328 11.7683C37.1109 15.5488 39 20.1626 39 25.6098C39 30.5285 37.3856 34.8276 34.1567 38.5073C30.9278 42.187 26.8547 44.3512 21.9375 45Z" fill="white"/>
</svg>
