<svg width="26" height="26" viewBox="0 0 26 26" fill="none" xmlns="http://www.w3.org/2000/svg">
<path d="M13 26C9.67778 26 6.78311 24.8988 4.316 22.6965C1.84889 20.4943 0.434296 17.7435 0.0722221 14.4444H3.03333C3.37037 16.9481 4.48404 19.0185 6.37433 20.6555C8.26463 22.2926 10.4732 23.1111 13 23.1111C15.8167 23.1111 18.2063 22.1303 20.1688 20.1688C22.1313 18.2072 23.1121 15.8176 23.1111 13C23.1101 10.1824 22.1294 7.79326 20.1688 5.83266C18.2082 3.87207 15.8186 2.89081 13 2.88889C11.3389 2.88889 9.78611 3.27407 8.34167 4.04444C6.89722 4.81481 5.68148 5.87407 4.69444 7.22222H8.66667V10.1111H0V1.44444H2.88889V4.83889C4.11667 3.29815 5.61552 2.10648 7.38544 1.26389C9.15537 0.421296 11.0269 0 13 0C14.8056 0 16.497 0.343296 18.0743 1.02989C19.6517 1.71648 21.0239 2.64285 22.191 3.809C23.3581 4.97515 24.285 6.34737 24.9716 7.92566C25.6581 9.50396 26.001 11.1954 26 13C25.999 14.8046 25.6562 16.496 24.9716 18.0743C24.2869 19.6526 23.36 21.0248 22.191 22.191C21.022 23.3571 19.6497 24.284 18.0743 24.9715C16.4989 25.6591 14.8075 26.0019 13 26ZM17.0444 19.0667L11.5556 13.5778V5.77778H14.4444V12.4222L19.0667 17.0444L17.0444 19.0667Z" fill="#FFFCFC"/>
</svg>
